<svg width="24" height="19" viewBox="0 0 24 19" fill="none" xmlns="http://www.w3.org/2000/svg">
<path d="M9.62842 3.06412C9.97861 3.21976 10.1537 3.49214 10.1537 3.88124V15.0875C10.1537 15.4766 9.97861 15.7489 9.62842 15.9046C9.47277 15.9824 9.33659 16.0213 9.21985 16.0213C9.06421 16.0213 8.86966 15.9435 8.6362 15.7879L4.84242 12.7528H1.74904C1.12647 12.7528 0.815186 12.4416 0.815186 11.819V7.14972C0.815186 6.52716 1.12647 6.21587 1.74904 6.21587H4.84242L8.6362 3.12249C8.79184 3.00576 8.98639 2.94739 9.21985 2.94739C9.33659 2.94739 9.47277 2.9863 9.62842 3.06412ZM23.1693 9.48435C23.1693 13.0252 21.9047 16.0602 19.3755 18.5894C19.2199 18.7451 19.0448 18.8229 18.8502 18.8229C18.6946 18.8229 18.5389 18.7451 18.3833 18.5894C18.0331 18.2781 18.0331 17.9474 18.3833 17.5972C20.6401 15.4182 21.7685 12.7139 21.7685 9.48435C21.7685 6.25478 20.6401 3.5505 18.3833 1.37152C18.0331 1.02132 18.0331 0.690582 18.3833 0.379297C18.7335 0.0680141 19.0642 0.0680141 19.3755 0.379297C21.9047 2.90848 23.1693 5.9435 23.1693 9.48435ZM16.8074 2.77229C18.5973 4.64 19.4922 6.87735 19.4922 9.48435C19.4922 12.0914 18.5973 14.3287 16.8074 16.1964C16.6518 16.3521 16.4767 16.4299 16.2821 16.4299C16.1265 16.4299 15.9708 16.3521 15.8152 16.1964C15.465 15.8462 15.4455 15.5155 15.7568 15.2042C17.3132 13.6478 18.0914 11.7412 18.0914 9.48435C18.0914 7.22755 17.3132 5.32093 15.7568 3.76451C15.4455 3.45323 15.465 3.12249 15.8152 2.77229C16.1654 2.4221 16.4961 2.4221 16.8074 2.77229ZM13.8307 5.16529C14.9981 6.41043 15.5817 7.85011 15.5817 9.48435C15.5817 11.1186 14.9981 12.5583 13.8307 13.8034C13.714 13.9202 13.5389 13.9785 13.3055 13.9785C13.1109 13.9785 12.9553 13.9202 12.8385 13.8034C12.5272 13.4921 12.5272 13.1614 12.8385 12.8112C13.7335 11.9163 14.1809 10.8073 14.1809 9.48435C14.1809 8.1614 13.7335 7.05245 12.8385 6.15751C12.5272 5.80731 12.5272 5.47657 12.8385 5.16529C13.1498 4.854 13.4806 4.854 13.8307 5.16529Z" fill="black"/>
</svg>
