<svg width="15" height="15" viewBox="0 0 15 15" fill="none" xmlns="http://www.w3.org/2000/svg">
<path d="M14.4174 14.3715L9.96011 9.5085C10.9644 8.45775 11.5164 7.08375 11.5164 5.625C11.5164 4.12275 10.9314 2.70975 9.86861 1.64775C8.80586 0.58575 7.39361 0 5.89136 0C4.38911 0 2.97611 0.585 1.91411 1.64775C0.852107 2.7105 0.266357 4.12275 0.266357 5.625C0.266357 7.12725 0.851357 8.54025 1.91411 9.60225C2.97686 10.6643 4.38911 11.25 5.89136 11.25C7.18586 11.25 8.41286 10.8158 9.40736 10.0162L13.8646 14.8785C13.9389 14.9595 14.0394 15 14.1414 15C14.2321 15 14.3229 14.9677 14.3949 14.9017C14.5479 14.7615 14.5576 14.5245 14.4181 14.3722L14.4174 14.3715ZM1.01561 5.625C1.01561 2.937 3.20261 0.75 5.89061 0.75C8.57861 0.75 10.7656 2.937 10.7656 5.625C10.7656 8.313 8.57861 10.5 5.89061 10.5C3.20261 10.5 1.01561 8.313 1.01561 5.625Z" fill="black"/>
</svg>
