<svg width="21" height="21" viewBox="0 0 21 21" fill="none" xmlns="http://www.w3.org/2000/svg">
<path d="M10.2812 0.718674C15.7931 0.718674 20.2618 5.18612 20.2618 10.6992C20.2618 16.2111 15.7931 20.6797 10.2812 20.6797C4.76936 20.6797 0.300743 16.2111 0.300743 10.6992C0.300743 5.18729 4.76936 0.718674 10.2812 0.718674ZM12.3534 12.9612L7.75727 10.7405C7.75883 10.7128 7.76117 10.6844 7.76117 10.6567L12.3522 8.43875C12.6618 8.67189 13.0446 8.81146 13.4614 8.81146C14.4793 8.81146 15.305 7.9869 15.305 6.9678C15.305 5.9483 14.4793 5.12374 13.4614 5.12374C12.4446 5.12374 11.6185 5.94986 11.6185 6.9678V6.96897L7.06761 9.16702C6.75182 8.91634 6.35377 8.76546 5.91985 8.76546C4.90191 8.76546 4.07579 9.59119 4.07579 10.6095C4.07579 11.6274 4.90191 12.4532 5.91985 12.4532C6.28788 12.4532 6.62979 12.3436 6.9179 12.1577L11.62 14.4306V14.4317C11.62 15.4512 12.4446 16.2758 13.4625 16.2758C14.4805 16.2758 15.3066 15.4501 15.3066 14.4317C15.3066 13.4126 14.4805 12.5881 13.4625 12.5881C13.0458 12.5881 12.6618 12.7276 12.3534 12.9612Z" fill="#8E8B8C"/>
</svg>
