<svg width="23" height="23" viewBox="0 0 23 23" fill="none" xmlns="http://www.w3.org/2000/svg">
<rect x="0.84375" y="0.75" width="22" height="22" rx="11" fill="#8E8B8C"/>
<g clip-path="url(#clip0_1_258)">
<path d="M17.0312 7.44382C16.8631 7.96873 16.5062 8.41066 16.0409 8.6892C16.4966 8.63495 16.9302 8.51359 17.3344 8.33454C17.0324 8.7859 16.6503 9.18259 16.2091 9.49887C16.214 9.59557 16.2159 9.69314 16.2159 9.79049C16.2159 12.7671 13.9503 16.1992 9.80719 16.1992C8.535 16.1992 7.35138 15.8259 6.35452 15.1871C6.53077 15.2077 6.70982 15.2187 6.89165 15.2187C7.94705 15.2187 8.91861 14.8584 9.68925 14.2546C8.70397 14.2362 7.87221 13.5849 7.58553 12.6902C7.7234 12.7163 7.86407 12.7307 8.00945 12.7307C8.21529 12.7307 8.41428 12.7032 8.60298 12.6518C7.57309 12.4446 6.79644 11.534 6.79644 10.443V10.4149C7.10029 10.5836 7.44744 10.6853 7.81668 10.6975C7.21286 10.2942 6.81489 9.60458 6.81489 8.823C6.81489 8.41002 6.92531 8.02298 7.11958 7.69084C8.23052 9.05351 9.89017 9.95045 11.7621 10.0444C11.7237 9.87969 11.7038 9.7075 11.7038 9.53103C11.7038 8.2878 12.7124 7.27914 13.9565 7.27914C14.6041 7.27914 15.1895 7.55232 15.6005 7.9906C16.1136 7.88918 16.5961 7.70177 17.0312 7.44382Z" fill="white"/>
</g>
<defs>
<clipPath id="clip0_1_258">
<rect width="11" height="11" fill="white" transform="matrix(1 0 0 -1 6.34375 17.25)"/>
</clipPath>
</defs>
</svg>
